<svg version="1.1" id="Layer_1" xmlns="http://www.w3.org/2000/svg" xmlns:xlink="http://www.w3.org/1999/xlink" x="0px" y="0px"
	 width="100%" viewBox="0 0 1024 1024" enable-background="new 0 0 1024 1024" xml:space="preserve">
<path fill="#000000" opacity="1.000000" stroke="none" 
	d="
M479.000000,1025.000000 
	C319.333344,1025.000000 160.166672,1025.000000 1.000000,1025.000000 
	C1.000000,683.666687 1.000000,342.333344 1.000000,1.000000 
	C342.333344,1.000000 683.666687,1.000000 1025.000000,1.000000 
	C1025.000000,342.333344 1025.000000,683.666687 1025.000000,1025.000000 
	C843.166687,1025.000000 661.333313,1025.000000 479.000000,1025.000000 
M520.250671,401.557495 
	C505.819550,401.491638 491.388428,401.425812 476.040039,401.197937 
	C428.599487,401.178345 381.158905,401.143860 333.718384,401.181580 
	C331.252777,401.183533 328.732452,401.576721 326.331146,402.167786 
	C310.224335,406.132080 299.599579,421.320953 301.060730,438.137543 
	C302.387299,453.405090 315.994507,467.610474 330.565521,467.939301 
	C348.031189,468.333466 365.514374,467.951385 383.919220,468.054077 
	C397.943054,468.010132 411.966858,467.966187 426.922180,468.052734 
	C434.957520,468.032684 442.992828,468.012634 450.739136,468.615997 
	C449.480438,469.412476 448.246826,470.252197 446.959229,470.998871 
	C428.101349,481.934601 409.008942,492.487366 390.433136,503.882446 
	C369.466034,516.744507 368.617065,545.430786 388.343445,559.798645 
	C397.299500,566.321777 407.472687,566.793396 418.866119,565.727051 
	C429.958344,565.775146 441.050934,565.893677 452.142670,565.840576 
	C457.414612,565.815308 462.685028,565.462952 468.818939,565.322021 
	C488.235352,565.388794 507.651764,565.455566 527.974854,565.715942 
	C582.470093,565.749878 636.966370,565.942932 691.459045,565.586731 
	C697.304810,565.548462 703.613953,563.211548 708.867798,560.381165 
	C721.504089,553.573669 727.451843,537.527283 723.604614,523.245422 
	C719.958496,509.710419 707.232910,498.942871 693.995789,498.860199 
	C669.667175,498.708252 645.336304,498.897156 620.314453,498.518311 
	C602.679260,498.450806 585.044006,498.363892 567.408752,498.345215 
	C565.605042,498.343292 563.800842,498.750183 561.064880,498.859924 
	C552.113953,498.882843 543.162964,498.905762 534.428040,498.305328 
	C535.076294,497.809509 535.678833,497.234894 536.379333,496.829285 
	C555.543579,485.732727 574.772705,474.746918 593.874939,463.544739 
	C612.484619,452.631348 615.925476,426.830963 601.114441,411.401245 
	C591.605286,401.494873 579.773499,400.035950 566.116943,401.200897 
	C559.674866,401.163574 553.231812,401.039551 546.790955,401.110229 
	C538.222595,401.204285 529.655884,401.449982 520.250671,401.557495 
M608.989746,290.583282 
	C602.241089,282.236633 593.639954,277.212158 582.792847,277.185699 
	C535.339844,277.069885 487.885956,277.027313 440.433441,277.220154 
	C430.065796,277.262299 421.378906,281.914978 415.081787,290.169891 
	C406.428284,301.513794 405.052704,314.028931 411.464905,326.756470 
	C417.887390,339.504211 428.900208,345.703583 443.068695,345.739075 
	C488.856689,345.853699 534.645203,345.832703 580.433350,345.752441 
	C594.600464,345.727600 605.663696,339.653473 612.208069,326.997498 
	C618.556458,314.720673 617.290527,302.564880 608.989746,290.583282 
M374.921326,693.447937 
	C362.436493,704.216187 349.934814,714.965027 337.491089,725.780640 
	C336.150177,726.946106 334.570740,728.322937 334.086853,729.903259 
	C332.150757,736.226624 330.603394,742.668884 328.821320,749.411011 
	C355.957703,749.411011 382.701660,749.411011 409.827484,749.411011 
	C411.941071,741.396912 414.075012,733.305664 416.442352,724.329407 
	C403.526123,724.329407 391.425659,724.329407 378.144897,724.329407 
	C380.623016,722.080566 382.041565,720.734619 383.521240,719.459595 
	C397.146454,707.718506 410.801666,696.012146 424.389069,684.227478 
	C425.981750,682.846069 427.897339,681.270691 428.493835,679.410278 
	C430.501404,673.148865 431.980713,666.718018 433.720642,660.130188 
	C378.532104,660.130188 323.805969,660.130188 268.996582,660.130188 
	C261.001923,689.991699 253.067032,719.630005 245.094696,749.408203 
	C271.103577,749.408203 296.516846,749.408203 322.170776,749.408203 
	C324.324646,741.252441 326.428070,733.287659 328.671753,724.791870 
	C312.648132,724.791870 297.231903,724.791870 281.781982,724.791870 
	C282.759430,715.280762 282.759430,715.280945 291.225708,715.281372 
	C297.723145,715.281738 304.220581,715.281433 310.718018,715.281433 
	C316.317169,715.281433 321.916321,715.281494 327.490387,715.281494 
	C329.476807,707.794250 331.297150,700.932922 333.273743,693.482788 
	C318.566864,693.482788 304.343170,693.482788 290.060944,693.482788 
	C291.312347,684.528931 291.312347,684.528931 299.173920,684.529297 
	C326.496490,684.530518 353.819061,684.527649 381.141632,684.549438 
	C382.122009,684.550232 383.102203,684.795166 384.632416,684.999878 
	C381.202728,687.990784 378.334290,690.492188 374.921326,693.447937 
M588.772034,723.926575 
	C572.356201,723.926575 555.940369,723.926575 539.009338,723.926575 
	C544.782288,702.303711 550.385254,681.317627 556.060364,660.061462 
	C545.913879,660.061462 536.139099,660.061462 526.001038,660.061462 
	C518.036621,689.787354 510.061279,719.553894 501.992767,749.668274 
	C533.459778,749.668274 564.278381,749.352600 595.082214,749.888367 
	C602.861694,750.023682 608.031860,748.288818 611.185669,741.074829 
	C611.814331,739.636841 613.634338,737.772095 614.952209,737.734009 
	C624.723999,737.451477 634.507690,737.580872 644.432373,737.580872 
	C645.035400,741.833191 645.566101,745.575867 646.113708,749.437378 
	C656.786804,749.437378 667.216187,749.437378 677.995850,749.437378 
	C673.466614,719.251526 668.980530,689.353088 664.438416,659.081116 
	C655.798157,659.081116 647.498474,659.303040 639.220337,658.976624 
	C635.693420,658.837524 633.851868,660.240173 632.024109,662.936279 
	C619.232605,681.805481 606.327515,700.597839 593.415466,719.385010 
	C592.310547,720.992676 590.891907,722.384766 588.772034,723.926575 
M437.593231,672.894592 
	C430.770355,698.352905 423.947479,723.811218 417.051575,749.542175 
	C427.316711,749.542175 436.955444,749.542175 447.015900,749.542175 
	C448.190430,745.281555 449.387726,740.980286 450.561523,736.672607 
	C453.691162,725.187012 453.687439,725.131409 465.639160,725.203430 
	C476.320404,725.267761 486.549561,723.585632 495.736816,717.747314 
	C507.799164,710.081787 513.882874,695.299927 510.824127,681.283508 
	C508.409149,670.217163 499.127167,662.152710 484.193481,660.966980 
	C469.989044,659.839294 455.624817,660.724243 440.887665,660.724243 
	C439.980682,664.102783 438.905792,668.106873 437.593231,672.894592 
M725.523254,685.030579 
	C724.473389,686.357605 723.423462,687.684631 721.929688,689.572754 
	C719.381287,679.174255 717.056824,669.689453 714.738770,660.230957 
	C704.138916,660.230957 693.800232,660.230957 683.487305,660.230957 
	C683.459534,660.754456 683.401917,660.936157 683.448914,661.084839 
	C687.509216,673.926270 691.018005,686.979004 695.816162,699.539062 
	C699.925537,710.296143 700.704895,720.471008 696.473206,731.293152 
	C694.227966,737.035034 693.244568,743.270325 691.592590,749.666260 
	C700.820435,749.666260 709.298950,749.480652 717.762146,749.760071 
	C721.023621,749.867737 722.289917,748.620300 722.648132,745.720886 
	C725.129089,725.641357 735.413025,709.792908 749.588806,696.056152 
	C749.708191,695.940430 749.820068,695.816101 749.928345,695.689819 
	C759.963074,683.995544 769.997070,672.300598 780.658020,659.875122 
	C769.509827,659.875122 759.270508,659.685730 749.048645,660.024475 
	C746.831726,660.097961 744.048645,661.538208 742.605103,663.255737 
	C736.827759,670.129333 731.475220,677.360046 725.523254,685.030579 
z"/>
<path fill="#A20C0C" opacity="1.000000" stroke="none" 
	d="
M417.962616,565.424438 
	C407.472687,566.793396 397.299500,566.321777 388.343445,559.798645 
	C368.617065,545.430786 369.466034,516.744507 390.433136,503.882446 
	C409.008942,492.487366 428.101349,481.934601 446.959229,470.998871 
	C448.246826,470.252197 449.480438,469.412476 451.239868,468.274780 
	C453.248962,467.241852 454.826324,466.669159 456.255615,465.840942 
	C485.246338,449.042938 514.223450,432.221436 543.194946,415.390198 
	C551.155029,410.765717 559.088013,406.094482 567.033447,401.444733 
	C579.773499,400.035950 591.605286,401.494873 601.114441,411.401245 
	C615.925476,426.830963 612.484619,452.631348 593.874939,463.544739 
	C574.772705,474.746918 555.543579,485.732727 536.379333,496.829285 
	C535.678833,497.234894 535.076294,497.809509 533.942139,498.664612 
	C526.171936,502.989197 518.803711,506.808868 511.619507,510.947845 
	C492.060486,522.216431 472.577515,533.617126 453.067810,544.971313 
	C441.362762,551.783325 429.664154,558.606384 417.962616,565.424438 
z"/>
<path fill="#A00C0C" opacity="1.000000" stroke="none" 
	d="
M609.210693,290.867676 
	C617.290527,302.564880 618.556458,314.720673 612.208069,326.997498 
	C605.663696,339.653473 594.600464,345.727600 580.433350,345.752441 
	C534.645203,345.832703 488.856689,345.853699 443.068695,345.739075 
	C428.900208,345.703583 417.887390,339.504211 411.464905,326.756470 
	C405.052704,314.028931 406.428284,301.513794 415.081787,290.169891 
	C421.378906,281.914978 430.065796,277.262299 440.433441,277.220154 
	C487.885956,277.027313 535.339844,277.069885 582.792847,277.185699 
	C593.639954,277.212158 602.241089,282.236633 609.210693,290.867676 
z"/>
<path fill="#FBFBFB" opacity="1.000000" stroke="none" 
	d="
M375.193604,693.220825 
	C378.334290,690.492188 381.202728,687.990784 384.632416,684.999878 
	C383.102203,684.795166 382.122009,684.550232 381.141632,684.549438 
	C353.819061,684.527649 326.496490,684.530518 299.173920,684.529297 
	C291.312347,684.528931 291.312347,684.528931 290.060944,693.482788 
	C304.343170,693.482788 318.566864,693.482788 333.273743,693.482788 
	C331.297150,700.932922 329.476807,707.794250 327.490387,715.281494 
	C321.916321,715.281494 316.317169,715.281433 310.718018,715.281433 
	C304.220581,715.281433 297.723145,715.281738 291.225708,715.281372 
	C282.759430,715.280945 282.759430,715.280762 281.781982,724.791870 
	C297.231903,724.791870 312.648132,724.791870 328.671753,724.791870 
	C326.428070,733.287659 324.324646,741.252441 322.170776,749.408203 
	C296.516846,749.408203 271.103577,749.408203 245.094696,749.408203 
	C253.067032,719.630005 261.001923,689.991699 268.996582,660.130188 
	C323.805969,660.130188 378.532104,660.130188 433.720642,660.130188 
	C431.980713,666.718018 430.501404,673.148865 428.493835,679.410278 
	C427.897339,681.270691 425.981750,682.846069 424.389069,684.227478 
	C410.801666,696.012146 397.146454,707.718506 383.521240,719.459595 
	C382.041565,720.734619 380.623016,722.080566 378.144897,724.329407 
	C391.425659,724.329407 403.526123,724.329407 416.442352,724.329407 
	C414.075012,733.305664 411.941071,741.396912 409.827484,749.411011 
	C382.701660,749.411011 355.957703,749.411011 328.821320,749.411011 
	C330.603394,742.668884 332.150757,736.226624 334.086853,729.903259 
	C334.570740,728.322937 336.150177,726.946106 337.491089,725.780640 
	C349.934814,714.965027 362.436493,704.216187 375.193604,693.220825 
M378.525818,724.873840 
	C378.611237,724.658325 378.696655,724.442871 378.782074,724.227356 
	C378.556824,724.288940 378.331604,724.350525 378.525818,724.873840 
z"/>
<path fill="#B10000" opacity="1.000000" stroke="none" 
	d="
M621.006409,498.944031 
	C645.336304,498.897156 669.667175,498.708252 693.995789,498.860199 
	C707.232910,498.942871 719.958496,509.710419 723.604614,523.245422 
	C727.451843,537.527283 721.504089,553.573669 708.867798,560.381165 
	C703.613953,563.211548 697.304810,565.548462 691.459045,565.586731 
	C636.966370,565.942932 582.470093,565.749878 527.518188,565.292847 
	C527.621765,564.129211 528.034668,563.168213 528.764099,562.680908 
	C542.954712,553.200623 557.146606,543.721436 571.411743,534.353943 
	C586.922668,524.168335 602.547363,514.155151 617.999146,503.881348 
	C619.453125,502.914642 620.025024,500.621368 621.006409,498.944031 
z"/>
<path fill="#FBFBFB" opacity="1.000000" stroke="none" 
	d="
M589.195557,723.901733 
	C590.891907,722.384766 592.310547,720.992676 593.415466,719.385010 
	C606.327515,700.597839 619.232605,681.805481 632.024109,662.936279 
	C633.851868,660.240173 635.693420,658.837524 639.220337,658.976624 
	C647.498474,659.303040 655.798157,659.081116 664.438416,659.081116 
	C668.980530,689.353088 673.466614,719.251526 677.995850,749.437378 
	C667.216187,749.437378 656.786804,749.437378 646.113708,749.437378 
	C645.566101,745.575867 645.035400,741.833191 644.432373,737.580872 
	C634.507690,737.580872 624.723999,737.451477 614.952209,737.734009 
	C613.634338,737.772095 611.814331,739.636841 611.185669,741.074829 
	C608.031860,748.288818 602.861694,750.023682 595.082214,749.888367 
	C564.278381,749.352600 533.459778,749.668274 501.992767,749.668274 
	C510.061279,719.553894 518.036621,689.787354 526.001038,660.061462 
	C536.139099,660.061462 545.913879,660.061462 556.060364,660.061462 
	C550.385254,681.317627 544.782288,702.303711 539.009338,723.926575 
	C555.940369,723.926575 572.356201,723.926575 589.195557,723.901733 
M639.229309,716.107544 
	C640.355530,716.008972 641.481750,715.910400 642.805603,715.794495 
	C642.055176,709.032288 641.333252,702.527710 640.464355,694.698242 
	C635.571655,702.342590 631.366882,708.912109 626.761597,716.107361 
	C631.101440,716.107361 634.703125,716.107361 639.229309,716.107544 
z"/>
<path fill="#B10000" opacity="1.000000" stroke="none" 
	d="
M382.989990,467.905457 
	C365.514374,467.951385 348.031189,468.333466 330.565521,467.939301 
	C315.994507,467.610474 302.387299,453.405090 301.060730,438.137543 
	C299.599579,421.320953 310.224335,406.132080 326.331146,402.167786 
	C328.732452,401.576721 331.252777,401.183533 333.718384,401.181580 
	C381.158905,401.143860 428.599487,401.178345 476.496338,401.617371 
	C475.087677,403.481537 473.301697,405.044342 471.345581,406.352753 
	C452.369110,419.045654 433.373474,431.709839 414.363037,444.351868 
	C406.094482,449.850494 397.669739,455.123047 389.548401,460.829193 
	C386.975250,462.637146 385.154846,465.516418 382.989990,467.905457 
z"/>
<path fill="#FCFCFC" opacity="1.000000" stroke="none" 
	d="
M437.712036,672.502808 
	C438.905792,668.106873 439.980682,664.102783 440.887665,660.724243 
	C455.624817,660.724243 469.989044,659.839294 484.193481,660.966980 
	C499.127167,662.152710 508.409149,670.217163 510.824127,681.283508 
	C513.882874,695.299927 507.799164,710.081787 495.736816,717.747314 
	C486.549561,723.585632 476.320404,725.267761 465.639160,725.203430 
	C453.687439,725.131409 453.691162,725.187012 450.561523,736.672607 
	C449.387726,740.980286 448.190430,745.281555 447.015900,749.542175 
	C436.955444,749.542175 427.316711,749.542175 417.051575,749.542175 
	C423.947479,723.811218 430.770355,698.352905 437.712036,672.502808 
M468.818726,703.522949 
	C470.419830,703.117859 472.082153,702.871094 473.611267,702.279724 
	C479.717621,699.918213 482.798950,693.855652 480.520020,688.891296 
	C478.714142,684.957458 469.815887,682.053772 465.478943,684.077332 
	C464.861877,684.365295 464.280212,685.185913 464.095337,685.871399 
	C462.517395,691.722351 461.034912,697.598938 459.475220,703.656860 
	C462.687408,703.656860 465.322968,703.656860 468.818726,703.522949 
z"/>
<path fill="#FCFCFC" opacity="1.000000" stroke="none" 
	d="
M725.744385,684.744629 
	C731.475220,677.360046 736.827759,670.129333 742.605103,663.255737 
	C744.048645,661.538208 746.831726,660.097961 749.048645,660.024475 
	C759.270508,659.685730 769.509827,659.875122 780.658020,659.875122 
	C769.997070,672.300598 759.963074,683.995544 749.928345,695.689819 
	C749.820068,695.816101 749.708191,695.940430 749.588806,696.056152 
	C735.413025,709.792908 725.129089,725.641357 722.648132,745.720886 
	C722.289917,748.620300 721.023621,749.867737 717.762146,749.760071 
	C709.298950,749.480652 700.820435,749.666260 691.592590,749.666260 
	C693.244568,743.270325 694.227966,737.035034 696.473206,731.293152 
	C700.704895,720.471008 699.925537,710.296143 695.816162,699.539062 
	C691.018005,686.979004 687.509216,673.926270 683.448914,661.084839 
	C683.401917,660.936157 683.459534,660.754456 683.487305,660.230957 
	C693.800232,660.230957 704.138916,660.230957 714.738770,660.230957 
	C717.056824,669.689453 719.381287,679.174255 721.929688,689.572754 
	C723.423462,687.684631 724.473389,686.357605 725.744385,684.744629 
z"/>
<path fill="#9C0404" opacity="1.000000" stroke="none" 
	d="
M620.660400,498.731171 
	C620.025024,500.621368 619.453125,502.914642 617.999146,503.881348 
	C602.547363,514.155151 586.922668,524.168335 571.411743,534.353943 
	C557.146606,543.721436 542.954712,553.200623 528.764099,562.680908 
	C528.034668,563.168213 527.621765,564.129211 527.064819,565.196045 
	C507.651764,565.455566 488.235352,565.388794 468.429718,564.915405 
	C469.555511,563.079346 470.898804,561.388794 472.612549,560.261414 
	C486.969604,550.816345 501.410004,541.497986 515.794922,532.095093 
	C529.628784,523.052429 543.479126,514.032532 557.182007,504.794586 
	C559.185730,503.443695 560.411255,500.938446 561.996887,498.967346 
	C563.800842,498.750183 565.605042,498.343292 567.408752,498.345215 
	C585.044006,498.363892 602.679260,498.450806 620.660400,498.731171 
z"/>
<path fill="#A00404" opacity="1.000000" stroke="none" 
	d="
M383.454590,467.979767 
	C385.154846,465.516418 386.975250,462.637146 389.548401,460.829193 
	C397.669739,455.123047 406.094482,449.850494 414.363037,444.351868 
	C433.373474,431.709839 452.369110,419.045654 471.345581,406.352753 
	C473.301697,405.044342 475.087677,403.481537 476.954956,401.698364 
	C491.388428,401.425812 505.819550,401.491638 520.615356,401.983826 
	C520.145020,403.355072 519.465881,404.538116 518.448242,405.204071 
	C513.882874,408.191711 509.167358,410.949951 504.603363,413.939606 
	C480.506042,429.724670 456.406281,445.506592 432.408051,461.441315 
	C429.927948,463.088074 428.113800,465.737823 425.990692,467.922211 
	C411.966858,467.966187 397.943054,468.010132 383.454590,467.979767 
z"/>
<path fill="#8E0808" opacity="1.000000" stroke="none" 
	d="
M561.530884,498.913635 
	C560.411255,500.938446 559.185730,503.443695 557.182007,504.794586 
	C543.479126,514.032532 529.628784,523.052429 515.794922,532.095093 
	C501.410004,541.497986 486.969604,550.816345 472.612549,560.261414 
	C470.898804,561.388794 469.555511,563.079346 467.998291,564.883789 
	C462.685028,565.462952 457.414612,565.815308 452.142670,565.840576 
	C441.050934,565.893677 429.958344,565.775146 418.414368,565.575745 
	C429.664154,558.606384 441.362762,551.783325 453.067810,544.971313 
	C472.577515,533.617126 492.060486,522.216431 511.619507,510.947845 
	C518.803711,506.808868 526.171936,502.989197 533.834106,498.976288 
	C543.162964,498.905762 552.113953,498.882843 561.530884,498.913635 
z"/>
<path fill="#900707" opacity="1.000000" stroke="none" 
	d="
M426.456421,467.987488 
	C428.113800,465.737823 429.927948,463.088074 432.408051,461.441315 
	C456.406281,445.506592 480.506042,429.724670 504.603363,413.939606 
	C509.167358,410.949951 513.882874,408.191711 518.448242,405.204071 
	C519.465881,404.538116 520.145020,403.355072 521.034302,402.020325 
	C529.655884,401.449982 538.222595,401.204285 546.790955,401.110229 
	C553.231812,401.039551 559.674866,401.163574 566.575195,401.322815 
	C559.088013,406.094482 551.155029,410.765717 543.194946,415.390198 
	C514.223450,432.221436 485.246338,449.042938 456.255615,465.840942 
	C454.826324,466.669159 453.248962,467.241852 451.384369,467.963074 
	C442.992828,468.012634 434.957520,468.032684 426.456421,467.987488 
z"/>
<path fill="#000000" opacity="1.000000" stroke="none" 
	d="
M378.316101,724.642944 
	C378.331604,724.350525 378.556824,724.288940 378.782104,724.227356 
	C378.696655,724.442871 378.611237,724.658325 378.316101,724.642944 
z"/>
<path fill="#080808" opacity="1.000000" stroke="none" 
	d="
M638.767090,716.107422 
	C634.703125,716.107361 631.101440,716.107361 626.761597,716.107361 
	C631.366882,708.912109 635.571655,702.342590 640.464355,694.698242 
	C641.333252,702.527710 642.055176,709.032288 642.805603,715.794495 
	C641.481750,715.910400 640.355530,716.008972 638.767090,716.107422 
z"/>
<path fill="#080808" opacity="1.000000" stroke="none" 
	d="
M468.388611,703.589905 
	C465.322968,703.656860 462.687408,703.656860 459.475220,703.656860 
	C461.034912,697.598938 462.517395,691.722351 464.095337,685.871399 
	C464.280212,685.185913 464.861877,684.365295 465.478943,684.077332 
	C469.815887,682.053772 478.714142,684.957458 480.520020,688.891296 
	C482.798950,693.855652 479.717621,699.918213 473.611267,702.279724 
	C472.082153,702.871094 470.419830,703.117859 468.388611,703.589905 
z"/>
</svg>